<mxfile host="app.diagrams.net" modified="2023-12-16T10:08:10.722Z" agent="Mozilla/5.0 (Windows NT 10.0; Win64; x64) AppleWebKit/537.36 (KHTML, like Gecko) Chrome/119.0.0.0 Safari/537.36" version="22.1.11" etag="vMZ7FxEJtHHkHr9qKla4" type="github">
  <diagram name="第 1 页" id="oifoqSgytJH1d8RTotBy">
    <mxGraphModel>
      <root>
        <mxCell id="0" />
        <mxCell id="1" parent="0" />
      </root>
    </mxGraphModel>
  </diagram>
</mxfile>
